# 3ds Max Wavefront OBJ Exporter v0.97b - (c)2007 guruware
# File Created: 24.10.2022 20:11:01

#
# object Box020
#

v  -5.0000 72.5000 35.0000
v  -5.0000 72.5000 25.0000
v  5.0000 72.5000 25.0000
v  5.0000 72.5000 35.0000
v  -5.0000 87.5000 35.0000
v  5.0000 87.5000 35.0000
v  5.0000 87.5000 25.0000
v  -5.0000 87.5000 25.0000
v  5.0000 77.5000 35.0000
v  -5.0000 77.5000 35.0000
v  -5.0000 77.5000 40.0000
v  5.0000 77.5000 40.0000
v  5.0000 82.5000 40.0000
v  -5.0000 82.5000 40.0000
v  -5.0000 82.5000 35.0000
v  5.0000 82.5000 35.0000
v  5.0000 77.5000 25.0000
v  10.0000 77.5000 35.0000
v  10.0000 77.5000 25.0000
v  10.0000 82.5000 25.0000
v  10.0000 82.5000 35.0000
v  5.0000 82.5000 25.0000
v  -5.0000 77.5000 25.0000
v  5.0000 77.5000 20.0000
v  -5.0000 77.5000 20.0000
v  -5.0000 82.5000 20.0000
v  5.0000 82.5000 20.0000
v  -5.0000 82.5000 25.0000
v  -10.0000 77.5000 25.0000
v  -10.0000 77.5000 35.0000
v  -10.0000 82.5000 35.0000
v  -10.0000 82.5000 25.0000
# 32 vertices

vn -0.0000 -1.0000 0.0000
vn 0.0000 1.0000 -0.0000
vn -0.0000 -0.0000 1.0000
vn 0.0000 0.0000 1.0000
vn -0.0000 0.0000 1.0000
vn 1.0000 0.0000 -0.0000
vn 1.0000 -0.0000 -0.0000
vn 0.0000 0.0000 -1.0000
vn 0.0000 -0.0000 -1.0000
vn -1.0000 -0.0000 0.0000
vn -1.0000 0.0000 -0.0000
vn -1.0000 0.0000 0.0000
vn 0.0000 -1.0000 -0.0000
vn 1.0000 0.0000 0.0000
vn 0.0000 -1.0000 0.0000
vn -0.0000 0.0000 -1.0000
# 16 vertex normals

o Box020
g Box020
f 1//1 2//1 3//1 
f 3//1 4//1 1//1 
f 5//2 6//2 7//2 
f 7//2 8//2 5//2 
f 1//3 4//3 9//3 
f 9//3 10//3 1//3 
f 11//4 12//4 13//4 
f 13//4 14//4 11//4 
f 15//5 16//5 6//5 
f 6//5 5//5 15//5 
f 4//6 3//6 17//6 
f 17//6 9//6 4//6 
f 18//6 19//6 20//6 
f 20//6 21//6 18//6 
f 16//7 22//7 7//7 
f 7//7 6//7 16//7 
f 3//8 2//8 23//8 
f 23//8 17//8 3//8 
f 24//8 25//8 26//8 
f 26//8 27//8 24//8 
f 22//9 28//9 8//9 
f 8//9 7//9 22//9 
f 2//10 1//10 10//10 
f 10//10 23//10 2//10 
f 29//11 30//11 31//11 
f 31//11 32//11 29//11 
f 28//12 15//12 5//12 
f 5//12 8//12 28//12 
f 16//4 9//4 18//4 
f 18//4 21//4 16//4 
f 9//13 17//13 19//13 
f 19//13 18//13 9//13 
f 17//8 22//8 20//8 
f 20//8 19//8 17//8 
f 22//2 16//2 21//2 
f 21//2 20//2 22//2 
f 22//14 17//14 24//14 
f 24//14 27//14 22//14 
f 17//13 23//13 25//13 
f 25//13 24//13 17//13 
f 23//11 28//11 26//11 
f 26//11 25//11 23//11 
f 28//2 22//2 27//2 
f 27//2 26//2 28//2 
f 10//1 9//1 12//1 
f 12//15 11//15 10//15 
f 9//6 16//6 13//6 
f 13//6 12//6 9//6 
f 16//2 15//2 14//2 
f 14//2 13//2 16//2 
f 15//11 10//11 11//11 
f 11//11 14//11 15//11 
f 10//4 15//4 31//4 
f 31//4 30//4 10//4 
f 15//2 28//2 32//2 
f 32//2 31//2 15//2 
f 28//16 23//16 29//16 
f 29//16 32//16 28//16 
f 23//13 10//13 30//13 
f 30//13 29//13 23//13 
# 60 faces

