# 3ds Max Wavefront OBJ Exporter v0.97b - (c)2007 guruware
# File Created: 24.10.2022 20:11:41

#
# object Box024
#

v  -10.0000 82.5000 40.0000
v  -10.0000 82.5000 20.0000
v  10.0000 82.5000 20.0000
v  10.0000 82.5000 40.0000
v  -10.0000 87.5000 40.0000
v  10.0000 87.5000 40.0000
v  10.0000 87.5000 20.0000
v  -10.0000 87.5000 20.0000
# 8 vertices

vn 0.0000 -1.0000 -0.0000
vn 0.0000 1.0000 -0.0000
vn 0.0000 0.0000 1.0000
vn 1.0000 0.0000 -0.0000
vn 0.0000 0.0000 -1.0000
vn -1.0000 0.0000 -0.0000
# 6 vertex normals

o Box024
g Box024
f 1//1 2//1 3//1 
f 3//1 4//1 1//1 
f 5//2 6//2 7//2 
f 7//2 8//2 5//2 
f 1//3 4//3 6//3 
f 6//3 5//3 1//3 
f 4//4 3//4 7//4 
f 7//4 6//4 4//4 
f 3//5 2//5 8//5 
f 8//5 7//5 3//5 
f 2//6 1//6 5//6 
f 5//6 8//6 2//6 
# 12 faces

